<svg width="167" height="29" viewBox="0 0 167 29" fill="none" xmlns="http://www.w3.org/2000/svg">
<path d="M3.49716 28.3707C2.5767 28.3707 1.78835 28.0469 1.1321 27.3991C0.484375 26.7514 0.164773 25.9673 0.173296 25.0469C0.164773 24.1435 0.484375 23.3722 1.1321 22.733C1.78835 22.0852 2.5767 21.7614 3.49716 21.7614C4.36648 21.7614 5.13352 22.0852 5.7983 22.733C6.47159 23.3722 6.8125 24.1435 6.82102 25.0469C6.8125 25.6605 6.65057 26.2187 6.33523 26.7216C6.02841 27.2244 5.62358 27.625 5.12074 27.9233C4.62642 28.2216 4.08523 28.3707 3.49716 28.3707ZM3.49716 14.8963C2.5767 14.8963 1.78835 14.5767 1.1321 13.9375C0.484375 13.2898 0.164773 12.5014 0.173296 11.5724C0.164773 10.669 0.484375 9.89773 1.1321 9.25852C1.78835 8.61079 2.5767 8.28693 3.49716 8.28693C4.36648 8.28693 5.13352 8.61079 5.7983 9.25852C6.47159 9.89773 6.8125 10.669 6.82102 11.5724C6.8125 12.1861 6.65057 12.7443 6.33523 13.2472C6.02841 13.75 5.62358 14.1506 5.12074 14.4489C4.62642 14.7472 4.08523 14.8963 3.49716 14.8963Z" fill="#6B60B5"/>
<path d="M10.9503 28V8.36364H17.0227V11.9432H17.2273C17.5852 10.6477 18.169 9.68466 18.9787 9.05398C19.7884 8.41477 20.7301 8.09517 21.804 8.09517C22.0938 8.09517 22.392 8.11648 22.6989 8.15909C23.0057 8.19318 23.2912 8.24858 23.5554 8.32528V13.7585C23.2571 13.6562 22.8651 13.5753 22.3793 13.5156C21.902 13.456 21.4759 13.4261 21.1009 13.4261C20.3594 13.4261 19.6903 13.5923 19.0938 13.9247C18.5057 14.2486 18.0412 14.7045 17.7003 15.2926C17.3679 15.8722 17.2017 16.554 17.2017 17.3381V28H10.9503ZM34.2493 28.3707C32.1868 28.3707 30.4141 27.9489 28.9311 27.1051C27.4567 26.2528 26.3189 25.0682 25.5178 23.5511C24.7251 22.0256 24.3288 20.2571 24.3288 18.2457C24.3288 16.2259 24.7251 14.4574 25.5178 12.9403C26.3189 11.4148 27.4567 10.2301 28.9311 9.38636C30.4141 8.53409 32.1868 8.10795 34.2493 8.10795C36.3118 8.10795 38.0803 8.53409 39.5547 9.38636C41.0376 10.2301 42.1754 11.4148 42.968 12.9403C43.7692 14.4574 44.1697 16.2259 44.1697 18.2457C44.1697 20.2571 43.7692 22.0256 42.968 23.5511C42.1754 25.0682 41.0376 26.2528 39.5547 27.1051C38.0803 27.9489 36.3118 28.3707 34.2493 28.3707ZM34.2876 23.6534C35.0376 23.6534 35.6726 23.4233 36.1925 22.9631C36.7124 22.5028 37.1087 21.8636 37.3814 21.0455C37.6626 20.2273 37.8033 19.2812 37.8033 18.2074C37.8033 17.1165 37.6626 16.1619 37.3814 15.3438C37.1087 14.5256 36.7124 13.8864 36.1925 13.4261C35.6726 12.9659 35.0376 12.7358 34.2876 12.7358C33.5121 12.7358 32.8558 12.9659 32.3189 13.4261C31.7905 13.8864 31.3857 14.5256 31.1044 15.3438C30.8317 16.1619 30.6953 17.1165 30.6953 18.2074C30.6953 19.2812 30.8317 20.2273 31.1044 21.0455C31.3857 21.8636 31.7905 22.5028 32.3189 22.9631C32.8558 23.4233 33.5121 23.6534 34.2876 23.6534ZM56.5384 28.3707C54.4759 28.3707 52.7031 27.9489 51.2202 27.1051C49.7457 26.2528 48.608 25.0682 47.8068 23.5511C47.0142 22.0256 46.6179 20.2571 46.6179 18.2457C46.6179 16.2259 47.0142 14.4574 47.8068 12.9403C48.608 11.4148 49.7457 10.2301 51.2202 9.38636C52.7031 8.53409 54.4759 8.10795 56.5384 8.10795C58.6009 8.10795 60.3693 8.53409 61.8438 9.38636C63.3267 10.2301 64.4645 11.4148 65.2571 12.9403C66.0582 14.4574 66.4588 16.2259 66.4588 18.2457C66.4588 20.2571 66.0582 22.0256 65.2571 23.5511C64.4645 25.0682 63.3267 26.2528 61.8438 27.1051C60.3693 27.9489 58.6009 28.3707 56.5384 28.3707ZM56.5767 23.6534C57.3267 23.6534 57.9616 23.4233 58.4815 22.9631C59.0014 22.5028 59.3977 21.8636 59.6705 21.0455C59.9517 20.2273 60.0923 19.2812 60.0923 18.2074C60.0923 17.1165 59.9517 16.1619 59.6705 15.3438C59.3977 14.5256 59.0014 13.8864 58.4815 13.4261C57.9616 12.9659 57.3267 12.7358 56.5767 12.7358C55.8011 12.7358 55.1449 12.9659 54.608 13.4261C54.0795 13.8864 53.6747 14.5256 53.3935 15.3438C53.1207 16.1619 52.9844 17.1165 52.9844 18.2074C52.9844 19.2812 53.1207 20.2273 53.3935 21.0455C53.6747 21.8636 54.0795 22.5028 54.608 22.9631C55.1449 23.4233 55.8011 23.6534 56.5767 23.6534ZM80.745 8.36364V12.9659H68.3572V8.36364H80.745ZM70.9524 3.65909H77.2038V21.8253C77.2038 22.2088 77.2635 22.5199 77.3828 22.7585C77.5107 22.9886 77.6939 23.1548 77.9325 23.2571C78.1712 23.3509 78.4567 23.3977 78.7891 23.3977C79.0277 23.3977 79.2791 23.3764 79.5433 23.3338C79.8161 23.2827 80.0206 23.2401 80.157 23.206L81.103 27.7188C80.8047 27.804 80.3828 27.9105 79.8374 28.0384C79.3004 28.1662 78.657 28.2472 77.907 28.2812C76.4411 28.3494 75.1839 28.179 74.1357 27.7699C73.0959 27.3523 72.299 26.7045 71.745 25.8267C71.1996 24.9489 70.9354 23.8452 70.9524 22.5156V3.65909ZM92.8899 28.3707C90.8189 28.3707 89.0419 27.9446 87.5589 27.0923C86.0845 26.2401 84.951 25.0554 84.1584 23.5384C83.3658 22.0128 82.9695 20.2486 82.9695 18.2457C82.9695 16.2344 83.3658 14.4702 84.1584 12.9531C84.9595 11.4276 86.0973 10.2386 87.5717 9.38636C89.0547 8.53409 90.8232 8.10795 92.8771 8.10795C94.6925 8.10795 96.2734 8.43608 97.62 9.09233C98.9751 9.74858 100.032 10.6776 100.79 11.8793C101.558 13.0724 101.962 14.4744 102.005 16.0852H96.1626C96.0433 15.0795 95.7024 14.2912 95.1399 13.7202C94.5859 13.1491 93.8615 12.8636 92.9666 12.8636C92.2422 12.8636 91.6072 13.0682 91.0618 13.4773C90.5163 13.8778 90.0902 14.4744 89.7834 15.267C89.4851 16.0511 89.3359 17.0227 89.3359 18.1818C89.3359 19.3409 89.4851 20.321 89.7834 21.1222C90.0902 21.9148 90.5163 22.5156 91.0618 22.9247C91.6072 23.3253 92.2422 23.5256 92.9666 23.5256C93.5462 23.5256 94.0575 23.402 94.5007 23.1548C94.9524 22.9077 95.3232 22.5455 95.6129 22.0682C95.9027 21.5824 96.0859 20.9943 96.1626 20.304H102.005C101.945 21.9233 101.54 23.3381 100.79 24.5483C100.049 25.7585 99.005 26.7003 97.6584 27.3736C96.3203 28.0384 94.7308 28.3707 92.8899 28.3707ZM105.204 28V8.36364H111.277V11.9432H111.481C111.839 10.6477 112.423 9.68466 113.233 9.05398C114.042 8.41477 114.984 8.09517 116.058 8.09517C116.348 8.09517 116.646 8.11648 116.953 8.15909C117.26 8.19318 117.545 8.24858 117.809 8.32528V13.7585C117.511 13.6562 117.119 13.5753 116.633 13.5156C116.156 13.456 115.73 13.4261 115.355 13.4261C114.613 13.4261 113.944 13.5923 113.348 13.9247C112.76 14.2486 112.295 14.7045 111.954 15.2926C111.622 15.8722 111.456 16.554 111.456 17.3381V28H105.204ZM125.154 28.3324C123.901 28.3324 122.789 28.1236 121.817 27.706C120.854 27.2798 120.091 26.6406 119.529 25.7884C118.975 24.9276 118.698 23.8494 118.698 22.554C118.698 21.4631 118.89 20.5426 119.273 19.7926C119.657 19.0426 120.185 18.4332 120.858 17.9645C121.532 17.4957 122.307 17.142 123.185 16.9034C124.063 16.6562 125 16.4901 125.998 16.4048C127.114 16.3026 128.013 16.196 128.695 16.0852C129.377 15.9659 129.871 15.7997 130.178 15.5866C130.493 15.3651 130.651 15.054 130.651 14.6534V14.5895C130.651 13.9332 130.425 13.4261 129.973 13.0682C129.522 12.7102 128.912 12.5312 128.145 12.5312C127.319 12.5312 126.654 12.7102 126.151 13.0682C125.648 13.4261 125.328 13.9205 125.192 14.5511L119.426 14.3466C119.597 13.1534 120.036 12.0881 120.743 11.1506C121.459 10.2045 122.439 9.46307 123.684 8.92614C124.936 8.38068 126.441 8.10795 128.196 8.10795C129.449 8.10795 130.604 8.2571 131.661 8.5554C132.718 8.84517 133.638 9.27131 134.422 9.83381C135.206 10.3878 135.811 11.0696 136.238 11.8793C136.672 12.6889 136.89 13.6136 136.89 14.6534V28H131.009V25.2642H130.855C130.506 25.929 130.059 26.4915 129.513 26.9517C128.976 27.4119 128.341 27.7571 127.608 27.9872C126.884 28.2173 126.066 28.3324 125.154 28.3324ZM127.084 24.2415C127.757 24.2415 128.363 24.1051 128.9 23.8324C129.445 23.5597 129.88 23.1847 130.203 22.7074C130.527 22.2216 130.689 21.6591 130.689 21.0199V19.1534C130.51 19.2472 130.293 19.3324 130.037 19.4091C129.79 19.4858 129.517 19.5582 129.219 19.6264C128.921 19.6946 128.614 19.7543 128.299 19.8054C127.983 19.8565 127.681 19.9034 127.391 19.946C126.803 20.0398 126.3 20.1847 125.882 20.3807C125.473 20.5767 125.158 20.8324 124.936 21.1477C124.723 21.4545 124.617 21.821 124.617 22.2472C124.617 22.8949 124.847 23.3892 125.307 23.7301C125.776 24.071 126.368 24.2415 127.084 24.2415ZM151.873 8.36364V12.9659H139.242V8.36364H151.873ZM141.875 28V7.36648C141.875 5.84943 142.161 4.59233 142.732 3.59517C143.303 2.58949 144.096 1.83949 145.11 1.34517C146.124 0.842328 147.296 0.590907 148.625 0.590907C149.495 0.590907 150.313 0.65909 151.08 0.795455C151.855 0.923295 152.431 1.03835 152.806 1.14062L151.809 5.71733C151.578 5.64062 151.297 5.5767 150.965 5.52557C150.641 5.47443 150.334 5.44886 150.044 5.44886C149.311 5.44886 148.809 5.61079 148.536 5.93466C148.263 6.25852 148.127 6.7017 148.127 7.2642V28H141.875ZM165.964 8.36364V12.9659H153.576V8.36364H165.964ZM156.171 3.65909H162.423V21.8253C162.423 22.2088 162.482 22.5199 162.602 22.7585C162.729 22.9886 162.913 23.1548 163.151 23.2571C163.39 23.3509 163.675 23.3977 164.008 23.3977C164.246 23.3977 164.498 23.3764 164.762 23.3338C165.035 23.2827 165.239 23.2401 165.376 23.206L166.322 27.7188C166.023 27.804 165.602 27.9105 165.056 28.0384C164.519 28.1662 163.876 28.2472 163.126 28.2812C161.66 28.3494 160.403 28.179 159.354 27.7699C158.315 27.3523 157.518 26.7045 156.964 25.8267C156.418 24.9489 156.154 23.8452 156.171 22.5156V3.65909Z" fill="#1F1F1F"/>
</svg>
